<svg version="1.1" id="Layer_1" xmlns="http://www.w3.org/2000/svg" xmlns:xlink="http://www.w3.org/1999/xlink" x="0px" y="0px"
	 width="100%" viewBox="0 0 225 225" enable-background="new 0 0 225 225" xml:space="preserve">
<path fill="#0150FF" opacity="1.000000" stroke="#FFFFFF" stroke-width="2" 
	d="
M16.054806,60.752186 
	C21.653584,51.291409 27.767313,42.089279 32.689781,32.288818 
	C36.697433,24.309719 42.991085,20.673204 51.854927,19.022099 
	C53.078903,19.102762 53.553890,19.135595 54.385048,19.369865 
	C56.884613,19.714327 59.027946,19.981153 61.171413,19.982201 
	C109.547417,20.005875 157.923447,19.984278 206.299377,20.044725 
	C208.905609,20.047981 211.511032,20.693781 214.116821,21.040470 
	C209.812515,28.788097 205.623032,36.602715 201.158112,44.256664 
	C198.722656,48.431656 196.084351,52.546307 193.064026,56.307980 
	C188.973740,61.402248 183.120392,63.322147 176.081879,63.615982 
	C174.377701,63.180470 173.387100,63.023521 172.396484,63.023224 
	C130.643234,63.010670 88.889977,63.007122 47.136738,63.032330 
	C45.661568,63.033218 44.186573,63.336620 42.262131,63.496956 
	C33.107292,63.418167 24.401821,63.341454 15.842472,62.860371 
	C16.010664,61.888062 16.032736,61.320126 16.054806,60.752186 
z"/>
<path fill="#0250FE" opacity="1.000000" stroke="#FFFFFF" stroke-width="2" 
	d="
M98.035103,116.025185 
	C98.691261,118.090012 99.347412,120.154839 99.709435,122.663589 
	C88.892830,131.633743 78.325592,140.106369 67.929626,148.784164 
	C67.062607,149.507904 67.350655,151.615387 67.057098,153.331711 
	C66.991959,153.752731 66.971756,153.922012 66.951553,154.091293 
	C63.763130,147.251373 59.672253,140.673996 57.588943,133.512589 
	C54.099522,121.517639 57.419071,110.132103 62.878948,99.137123 
	C69.799660,85.200356 80.965523,76.930931 95.707893,73.011711 
	C98.510292,72.266708 101.361488,71.705238 104.804008,71.410233 
	C106.629044,71.888756 107.840240,72.016136 109.032516,72.353020 
	C109.013596,72.562523 108.974335,72.981392 108.690247,73.029129 
	C107.918655,73.363480 107.431152,73.650085 106.612442,74.003387 
	C104.848259,74.736397 103.415268,75.402702 101.687164,76.219894 
	C98.902634,79.168053 96.413223,81.965340 93.645447,85.017517 
	C89.574577,92.464355 89.996475,99.746407 92.960495,107.442535 
	C94.691811,110.544090 96.363457,113.284637 98.035103,116.025185 
z"/>
<path fill="#0150FF" opacity="1.000000" stroke="#FFFFFF" stroke-width="2" 
	d="
M183.974030,71.811165 
	C182.130844,75.890312 180.500946,80.083626 178.393280,84.021202 
	C175.412994,89.589027 172.009171,94.928246 168.912949,100.436310 
	C163.293457,110.433083 155.443665,116.595566 143.354187,116.033821 
	C138.558487,115.810982 133.744766,115.976044 128.560913,115.500458 
	C128.455551,112.735962 128.949081,110.436981 128.964523,108.134789 
	C129.045029,96.138351 129.003891,84.141090 129.469788,72.084091 
	C147.947647,71.953094 165.960846,71.882133 183.974030,71.811165 
z"/>
<path fill="#0348DD" opacity="1.000000" stroke="#FFFFFF" stroke-width="2" 
	d="
M108.068863,135.893372 
	C109.712120,138.649368 111.355377,141.405365 112.991844,144.878952 
	C111.632591,147.193192 110.498489,149.065079 108.891090,150.340424 
	C100.482498,157.011917 91.823242,163.373932 83.549461,170.204880 
	C81.182297,172.159225 79.439545,172.940170 76.921768,171.125702 
	C75.930809,169.679031 74.939850,168.232376 74.152039,166.195404 
	C81.713913,159.423004 89.151268,153.331268 96.400551,147.023392 
	C100.451263,143.498734 104.189713,139.615204 108.068863,135.893372 
z"/>
<path fill="#024BE9" opacity="1.000000" stroke="#FFFFFF" stroke-width="2" 
	d="
M107.919952,135.575531 
	C104.189713,139.615204 100.451263,143.498734 96.400551,147.023392 
	C89.151268,153.331268 81.713913,159.423004 74.121918,165.852020 
	C72.013084,162.962082 70.137505,159.825195 68.594193,156.336624 
	C70.539139,155.275299 72.394409,154.869522 73.725380,153.807007 
	C82.754349,146.599060 91.735718,139.327118 100.557968,131.869415 
	C101.864647,130.764847 102.250931,128.571487 103.063049,126.881851 
	C104.632378,129.673813 106.201706,132.465759 107.919952,135.575531 
z"/>
<path fill="#0443CA" opacity="1.000000" stroke="#FFFFFF" stroke-width="2" 
	d="
M87.919189,190.117477 
	C86.615097,188.010559 85.311012,185.903625 84.129349,183.131622 
	C85.207047,181.119186 85.934143,179.501938 87.155533,178.469345 
	C93.866539,172.795731 100.615089,167.159058 107.523346,161.729309 
	C111.103157,158.915665 115.039352,156.555435 118.814537,153.990372 
	C118.814537,153.990372 118.968430,154.441833 118.992172,154.948822 
	C119.015007,155.636642 119.014091,155.817490 119.072937,156.343109 
	C121.592278,160.409744 120.043884,163.087631 116.978363,165.523849 
	C112.067688,169.426422 107.183006,173.366425 102.398453,177.421707 
	C97.502403,181.571487 92.740059,185.879013 87.919189,190.117477 
z"/>
<path fill="#0546D3" opacity="1.000000" stroke="#FFFFFF" stroke-width="2" 
	d="
M118.758652,153.657074 
	C115.039352,156.555435 111.103157,158.915665 107.523346,161.729309 
	C100.615089,167.159058 93.866539,172.795731 87.155533,178.469345 
	C85.934143,179.501938 85.207047,181.119186 84.104218,182.779404 
	C81.627075,179.345795 79.297501,175.599335 76.944847,171.489288 
	C79.439545,172.940170 81.182297,172.159225 83.549461,170.204880 
	C91.823242,163.373932 100.482498,157.011917 108.891090,150.340424 
	C110.498489,149.065079 111.632591,147.193192 113.018982,145.234985 
	C114.936188,147.690201 116.819473,150.506989 118.758652,153.657074 
z"/>
<path fill="#024DF1" opacity="1.000000" stroke="#FFFFFF" stroke-width="2" 
	d="
M102.927322,126.592377 
	C102.250931,128.571487 101.864647,130.764847 100.557968,131.869415 
	C91.735718,139.327118 82.754349,146.599060 73.725380,153.807007 
	C72.394409,154.869522 70.539139,155.275299 68.557724,155.989334 
	C68.188988,155.993729 68.042160,155.547821 67.965378,155.037506 
	C67.626411,154.044800 67.364235,153.562378 67.102051,153.079971 
	C67.350655,151.615387 67.062607,149.507904 67.929626,148.784164 
	C78.325592,140.106369 88.892830,131.633743 99.760941,123.037529 
	C101.001579,124.079338 101.896584,125.191116 102.927322,126.592377 
z"/>
<path fill="#0A3EB1" opacity="1.000000" stroke="#FFFFFF" stroke-width="2" 
	d="
M123.818451,176.009155 
	C118.661644,185.706940 113.525223,195.415649 108.336426,205.096283 
	C106.635040,208.270538 104.797707,211.371902 102.318123,215.750534 
	C98.606468,209.353851 95.271278,203.605988 92.146591,197.416931 
	C94.967674,199.928497 97.193413,200.463135 100.483711,197.257919 
	C108.014938,189.921417 116.011086,183.062180 123.818451,176.009155 
z"/>
<path fill="#0640BA" opacity="1.000000" stroke="#FFFFFF" stroke-width="2" 
	d="
M123.877777,175.629547 
	C116.011086,183.062180 108.014938,189.921417 100.483711,197.257919 
	C97.193413,200.463135 94.967674,199.928497 92.127090,197.056427 
	C91.322739,196.311356 90.748367,195.485596 90.386963,194.341324 
	C91.646851,193.577682 92.869949,193.347046 93.713348,192.654190 
	C101.885048,185.941071 110.121155,179.295578 118.047714,172.300842 
	C120.717201,169.945175 122.189178,170.327148 123.861755,172.951736 
	C123.886871,173.717804 123.911987,174.483871 123.877777,175.629547 
z"/>
<path fill="#0640BA" opacity="1.000000" stroke="#FFFFFF" stroke-width="2" 
	d="
M93.923813,84.762619 
	C96.413223,81.965340 98.902634,79.168053 101.691689,76.681305 
	C101.994240,87.587463 102.068420,98.183769 101.964943,108.778351 
	C101.923637,113.006851 103.254669,115.547371 107.978424,115.235672 
	C107.988716,115.439560 108.015945,115.846939 108.015945,115.846939 
	C104.990646,115.890884 101.965340,115.934830 98.487572,116.001984 
	C96.363457,113.284637 94.691811,110.544090 93.210899,107.098503 
	C93.575691,99.183182 93.749748,91.972900 93.923813,84.762619 
z"/>
<path fill="#0742C2" opacity="1.000000" stroke="#FFFFFF" stroke-width="2" 
	d="
M124.047089,172.619095 
	C122.189178,170.327148 120.717201,169.945175 118.047714,172.300842 
	C110.121155,179.295578 101.885048,185.941071 93.713348,192.654190 
	C92.869949,193.347046 91.646851,193.577682 90.233597,194.069504 
	C89.230850,193.006836 88.594429,191.897461 87.938599,190.452789 
	C92.740059,185.879013 97.502403,181.571487 102.398453,177.421707 
	C107.183006,173.366425 112.067688,169.426422 116.978363,165.523849 
	C120.043884,163.087631 121.592278,160.409744 119.272690,156.341125 
	C119.412682,155.994354 119.813034,155.987427 119.813034,155.987427 
	C122.773964,161.017029 125.241287,166.180466 124.047089,172.619095 
z"/>
<path fill="#024BE9" opacity="1.000000" stroke="#FFFFFF" stroke-width="2" 
	d="
M123.006454,115.832321 
	C120.645836,115.875458 118.285225,115.918587 115.755524,115.654358 
	C116.391159,113.324547 117.844017,111.317154 117.891365,109.277145 
	C118.129799,99.004303 117.946579,88.722404 118.047562,78.445030 
	C118.068207,76.343277 118.672050,74.247253 119.403938,72.090851 
	C120.868240,72.073967 121.935661,72.114815 123.176971,72.524506 
	C123.565575,74.185379 123.989960,75.481842 123.962654,76.768730 
	C123.686234,89.790825 123.335991,102.811356 123.006454,115.832321 
z"/>
<path fill="#024DF1" opacity="1.000000" stroke="#FFFFFF" stroke-width="2" 
	d="
M123.420227,115.899048 
	C123.335991,102.811356 123.686234,89.790825 123.962654,76.768730 
	C123.989960,75.481842 123.565575,74.185379 123.602509,72.465729 
	C125.571144,72.073441 127.288116,72.108772 129.005096,72.144119 
	C129.003891,84.141090 129.045029,96.138351 128.964523,108.134789 
	C128.949081,110.436981 128.455551,112.735962 128.097137,115.434540 
	C126.619125,115.877037 125.226562,115.921410 123.420227,115.899048 
z"/>
<path fill="#0348DD" opacity="1.000000" stroke="#FFFFFF" stroke-width="2" 
	d="
M119.007065,72.148590 
	C118.672050,74.247253 118.068207,76.343277 118.047562,78.445030 
	C117.946579,88.722404 118.129799,99.004303 117.891365,109.277145 
	C117.844017,111.317154 116.391159,113.324547 115.318314,115.586502 
	C114.288506,115.870522 113.526817,115.915031 112.472977,115.498894 
	C112.453949,112.738022 112.948158,110.439224 112.963127,108.137314 
	C113.041130,96.142273 112.997223,84.146431 113.422043,72.090881 
	C115.567917,72.070129 117.287491,72.109360 119.007065,72.148590 
z"/>
<path fill="#0546D3" opacity="1.000000" stroke="#FFFFFF" stroke-width="2" 
	d="
M112.995743,72.150864 
	C112.997223,84.146431 113.041130,96.142273 112.963127,108.137314 
	C112.948158,110.439224 112.453949,112.738022 112.095245,115.436371 
	C110.942932,115.880966 109.876198,115.927437 108.412704,115.910423 
	C108.015945,115.846939 107.988716,115.439560 107.987930,114.763496 
	C107.991295,102.618263 108.043793,91.148697 107.952133,79.680298 
	C107.936813,77.763199 107.295624,75.851097 106.943642,73.936691 
	C107.431152,73.650085 107.918655,73.363480 108.967667,72.995285 
	C110.014389,72.657318 110.499596,72.400948 111.318459,72.086380 
	C112.099991,72.069084 112.547867,72.109978 112.995743,72.150864 
z"/>
<path fill="#FFFFFF" opacity="1.000000" stroke="#FFFFFF" stroke-width="2" 
	d="
M54.028877,19.168428 
	C53.553890,19.135595 53.078903,19.102762 52.249264,19.013344 
	C53.069130,18.637852 54.243401,18.041016 55.418198,18.039989 
	C107.865120,17.994112 160.312088,17.999729 212.759048,18.011374 
	C213.414597,18.011518 214.070099,18.168476 214.323730,18.653622 
	C179.109406,19.036404 144.296982,18.995956 109.484573,19.008049 
	C90.999329,19.014471 72.514107,19.112017 54.028877,19.168428 
z"/>
<path fill="#003AFF" opacity="1.000000" stroke="#FFFFFF" stroke-width="2" 
	d="
M54.385048,19.369865 
	C72.514107,19.112017 90.999329,19.014471 109.484573,19.008049 
	C144.296982,18.995956 179.109406,19.036404 214.378067,19.096853 
	C214.774887,19.694878 214.715454,20.251055 214.386429,20.923853 
	C211.511032,20.693781 208.905609,20.047981 206.299377,20.044725 
	C157.923447,19.984278 109.547417,20.005875 61.171413,19.982201 
	C59.027946,19.981153 56.884613,19.714327 54.385048,19.369865 
z"/>
<path fill="#86A1FF" opacity="1.000000" stroke="#FFFFFF" stroke-width="2" 
	d="
M42.711498,63.499031 
	C44.186573,63.336620 45.661568,63.033218 47.136738,63.032330 
	C88.889977,63.007122 130.643234,63.010670 172.396484,63.023224 
	C173.387100,63.023521 174.377701,63.180470 175.674591,63.548019 
	C146.748352,63.886692 117.515800,63.948387 88.283234,63.993896 
	C73.498886,64.016914 58.714481,64.010658 43.306606,63.961235 
	C42.683109,63.904831 42.711498,63.499031 42.711498,63.499031 
z"/>
<path fill="#A4B8FE" opacity="1.000000" stroke="#FFFFFF" stroke-width="2" 
	d="
M113.422043,72.090881 
	C112.547867,72.109978 112.099991,72.069084 110.997513,72.029190 
	C109.912422,72.067963 109.481934,72.105736 109.051437,72.143509 
	C107.840240,72.016136 106.629044,71.888756 105.203323,71.464302 
	C131.159866,71.144348 157.330933,71.121475 183.738007,71.454880 
	C165.960846,71.882133 147.947647,71.953094 129.469788,72.084084 
	C127.288116,72.108772 125.571144,72.073441 123.428627,72.096878 
	C121.935661,72.114815 120.868240,72.073967 119.403946,72.090851 
	C117.287491,72.109360 115.567917,72.070129 113.422043,72.090881 
z"/>
<path fill="#FFFFFF" opacity="1.000000" stroke="#FFFFFF" stroke-width="2" 
	d="
M42.262131,63.496956 
	C42.711498,63.499031 42.683109,63.904831 42.842709,64.031105 
	C38.644764,64.438255 34.290630,64.853287 29.928768,64.964096 
	C25.101343,65.086723 20.266850,64.930992 15.377109,64.240288 
	C15.224266,63.388916 15.129747,63.193748 15.035230,62.998581 
	C15.035230,62.998581 15.031028,63.027451 15.138581,63.246769 
	C15.246135,63.466087 15.696351,63.264744 15.696351,63.264740 
	C24.401821,63.341454 33.107292,63.418167 42.262131,63.496956 
z"/>
<path fill="#86A1FF" opacity="1.000000" stroke="#FFFFFF" stroke-width="2" 
	d="
M15.842472,62.860374 
	C15.696351,63.264744 15.246135,63.466087 15.124762,63.251438 
	C15.143252,62.378265 15.283116,61.719746 15.738894,60.906704 
	C16.032736,61.320126 16.010664,61.888062 15.842472,62.860374 
z"/>
<path fill="#024BE9" opacity="1.000000" stroke="#FFFFFF" stroke-width="2" 
	d="
M67.057098,153.331711 
	C67.364235,153.562378 67.626411,154.044800 67.921478,154.806915 
	C67.672844,154.915695 67.391327,154.744766 67.030685,154.332565 
	C66.971756,153.922012 66.991959,153.752731 67.057098,153.331711 
z"/>
<path fill="#86A1FF" opacity="1.000000" stroke="#FFFFFF" stroke-width="2" 
	d="
M14.755894,63.036255 
	C15.129747,63.193748 15.224266,63.388916 15.156553,63.866467 
	C14.821734,63.790543 14.649146,63.432232 14.755894,63.036255 
z"/>
<path fill="#0546D3" opacity="1.000000" stroke="#FFFFFF" stroke-width="2" 
	d="
M119.828491,155.734726 
	C119.813034,155.987427 119.412682,155.994354 119.212929,155.996338 
	C119.014091,155.817490 119.015007,155.636642 119.027199,155.184723 
	C119.306969,155.103104 119.575455,155.292557 119.828491,155.734726 
z"/>
<path fill="#0443CA" opacity="1.000000" stroke="#FFFFFF" stroke-width="2" 
	d="
M106.612442,74.003387 
	C107.295624,75.851097 107.936813,77.763199 107.952133,79.680298 
	C108.043793,91.148697 107.991295,102.618263 107.977646,114.559616 
	C103.254669,115.547371 101.923637,113.006851 101.964943,108.778351 
	C102.068420,98.183769 101.994240,87.587463 101.986801,76.530426 
	C103.415268,75.402702 104.848259,74.736397 106.612442,74.003387 
z"/>
<path fill="#0A3EB1" opacity="1.000000" stroke="#FFFFFF" stroke-width="2" 
	d="
M93.645447,85.017517 
	C93.749748,91.972900 93.575691,99.183182 93.151230,106.737495 
	C89.996475,99.746407 89.574577,92.464355 93.645447,85.017517 
z"/>
<path fill="#0348DD" opacity="1.000000" stroke="#FFFFFF" stroke-width="2" 
	d="
M109.032516,72.353012 
	C109.481934,72.105736 109.912422,72.067963 110.663864,72.087379 
	C110.499596,72.400948 110.014389,72.657318 109.251755,72.947540 
	C108.974335,72.981392 109.013596,72.562523 109.032516,72.353012 
z"/>
</svg>